<svg xmlns="http://www.w3.org/2000/svg" width="1280" height="640" viewBox="0 0 1280 640">
  <defs>
    <radialGradient id="glow" cx="300" cy="305" r="265" gradientUnits="userSpaceOnUse">
      <stop offset="0%" stop-color="#4637BE" stop-opacity="0.30"/>
      <stop offset="55%" stop-color="#4637BE" stop-opacity="0.09"/>
      <stop offset="100%" stop-color="#4637BE" stop-opacity="0"/>
    </radialGradient>
    <linearGradient id="body" x1="0" y1="245" x2="0" y2="435" gradientUnits="userSpaceOnUse">
      <stop offset="0%" stop-color="#5B5CE0"/>
      <stop offset="100%" stop-color="#3F38B6"/>
    </linearGradient>
  </defs>

  <rect width="1280" height="640" fill="#0E0E16"/>
  <rect width="1280" height="640" fill="url(#glow)"/>

  <!-- antenna -->
  <path d="M315 250 L315 219 L341 200" fill="none" stroke="#5355DB"
        stroke-width="9" stroke-linecap="round" stroke-linejoin="round"/>
  <circle cx="341" cy="198" r="11" fill="#FF5A52"/>

  <!-- body -->
  <rect x="195" y="245" width="239" height="190" rx="34" fill="url(#body)"/>

  <!-- screen -->
  <rect x="225" y="275" width="179" height="129" rx="19" fill="#111119"
        stroke="#26263A" stroke-width="2"/>

  <!-- play (rounded corners via round stroke join) -->
  <path d="M291.07 306.89 L291.07 372.11 L349.00 339.50 Z" fill="#FF5A52"
        stroke="#FF5A52" stroke-width="16" stroke-linejoin="round"/>

  <!-- title -->
  <path transform="translate(553.55 352.28)" d="M18.9921875 -6.7890625V18.3046875H6.4453125V-48.125H18.9921875V-40.90625Q20.96875 -45.07421875 24.19140625 -47.1796875Q27.4140625 -49.28515625 31.75390625 -49.28515625Q40.00390625 -49.28515625 44.55859375 -42.66796875Q49.11328125 -36.05078125 49.11328125 -24.01953125Q49.11328125 -11.81640625 44.494140625 -5.28515625Q39.875 1.24609375 31.32421875 1.24609375Q27.45703125 1.24609375 24.384765625 -0.751953125Q21.3125 -2.75 18.9921875 -6.7890625ZM36.5234375 -24.10546875Q36.5234375 -31.06640625 34.203125 -35.01953125Q31.8828125 -38.97265625 27.80078125 -38.97265625Q23.71875 -38.97265625 21.35546875 -35.01953125Q18.9921875 -31.06640625 18.9921875 -24.10546875Q18.9921875 -17.14453125 21.35546875 -13.19140625Q23.71875 -9.23828125 27.80078125 -9.23828125Q31.8828125 -9.23828125 34.203125 -13.19140625Q36.5234375 -17.14453125 36.5234375 -24.10546875ZM69.609375 -20.06640625V-57.19140625H56.84765625V-66.859375H82.19921875V-20.06640625Q82.19921875 -14.39453125 83.9609375 -12.03125Q85.72265625 -9.66796875 89.93359375 -9.66796875H99.98828125V0.0H86.41015625Q77.4296875 0.0 73.51953125 -4.640625Q69.609375 -9.28125 69.609375 -20.06640625ZM136.0390625 -22.6015625Q128.9921875 -22.6015625 126.19921875 -20.796875Q123.40625 -18.9921875 123.40625 -14.609375Q123.40625 -11.34375 125.33984375 -9.41015625Q127.2734375 -7.4765625 130.58203125 -7.4765625Q135.56640625 -7.4765625 138.31640625 -11.236328125Q141.06640625 -14.99609375 141.06640625 -21.7421875V-22.6015625ZM153.5703125 -27.45703125V0.0H141.06640625V-5.37109375Q138.7890625 -2.19140625 135.22265625 -0.47265625Q131.65625 1.24609375 127.359375 1.24609375Q119.15234375 1.24609375 114.576171875 -3.09375Q110.0 -7.43359375 110.0 -15.2109375Q110.0 -23.6328125 115.45703125 -27.650390625Q120.9140625 -31.66796875 132.34375 -31.66796875H141.06640625V-33.7734375Q141.06640625 -36.82421875 138.853515625 -38.392578125Q136.640625 -39.9609375 132.34375 -39.9609375Q127.83203125 -39.9609375 123.599609375 -38.822265625Q119.3671875 -37.68359375 114.76953125 -35.19140625V-45.93359375Q118.9375 -47.65234375 123.234375 -48.46875Q127.53125 -49.28515625 132.34375 -49.28515625Q144.07421875 -49.28515625 148.822265625 -44.515625Q153.5703125 -39.74609375 153.5703125 -27.45703125ZM189.4921875 5.19921875Q186.95703125 11.98828125 183.412109375 15.103515625Q179.8671875 18.21875 174.796875 18.21875H164.3984375V8.63671875H169.51171875Q173.37890625 8.63671875 175.18359375 7.326171875Q176.98828125 6.015625 178.8359375 1.24609375L179.78125 -1.33203125L161.4765625 -48.125H174.7109375L185.7109375 -16.88671875L196.23828125 -48.125H209.47265625ZM248.4453125 -23.93359375Q248.4453125 -30.89453125 246.125 -34.84765625Q243.8046875 -38.80078125 239.72265625 -38.80078125Q235.640625 -38.80078125 233.27734375 -34.84765625Q230.9140625 -30.89453125 230.9140625 -23.93359375Q230.9140625 -16.97265625 233.27734375 -13.01953125Q235.640625 -9.06640625 239.72265625 -9.06640625Q243.8046875 -9.06640625 246.125 -13.01953125Q248.4453125 -16.97265625 248.4453125 -23.93359375ZM230.9140625 -41.29296875Q233.234375 -45.2890625 236.306640625 -47.287109375Q239.37890625 -49.28515625 243.24609375 -49.28515625Q251.796875 -49.28515625 256.416015625 -42.75390625Q261.03515625 -36.22265625 261.03515625 -24.01953125Q261.03515625 -11.98828125 256.48046875 -5.37109375Q251.92578125 1.24609375 243.67578125 1.24609375Q239.3359375 1.24609375 236.11328125 -0.859375Q232.890625 -2.96484375 230.9140625 -7.1328125V0.0H218.3671875V-66.859375H230.9140625ZM294.98046875 -22.6015625Q287.93359375 -22.6015625 285.140625 -20.796875Q282.34765625 -18.9921875 282.34765625 -14.609375Q282.34765625 -11.34375 284.28125 -9.41015625Q286.21484375 -7.4765625 289.5234375 -7.4765625Q294.5078125 -7.4765625 297.2578125 -11.236328125Q300.0078125 -14.99609375 300.0078125 -21.7421875V-22.6015625ZM312.51171875 -27.45703125V0.0H300.0078125V-5.37109375Q297.73046875 -2.19140625 294.1640625 -0.47265625Q290.59765625 1.24609375 286.30078125 1.24609375Q278.09375 1.24609375 273.517578125 -3.09375Q268.94140625 -7.43359375 268.94140625 -15.2109375Q268.94140625 -23.6328125 274.3984375 -27.650390625Q279.85546875 -31.66796875 291.28515625 -31.66796875H300.0078125V-33.7734375Q300.0078125 -36.82421875 297.794921875 -38.392578125Q295.58203125 -39.9609375 291.28515625 -39.9609375Q286.7734375 -39.9609375 282.541015625 -38.822265625Q278.30859375 -37.68359375 273.7109375 -35.19140625V-45.93359375Q277.87890625 -47.65234375 282.17578125 -48.46875Q286.47265625 -49.28515625 291.28515625 -49.28515625Q303.015625 -49.28515625 307.763671875 -44.515625Q312.51171875 -39.74609375 312.51171875 -27.45703125ZM363.47265625 -2.44921875Q360.29296875 -0.6015625 356.640625 0.322265625Q352.98828125 1.24609375 348.77734375 1.24609375Q337.6484375 1.24609375 331.375 -5.45703125Q325.1015625 -12.16015625 325.1015625 -24.01953125Q325.1015625 -35.921875 331.41796875 -42.646484375Q337.734375 -49.37109375 348.86328125 -49.37109375Q352.73046875 -49.37109375 356.318359375 -48.46875Q359.90625 -47.56640625 363.47265625 -45.67578125V-34.16015625Q360.72265625 -36.5234375 357.435546875 -37.791015625Q354.1484375 -39.05859375 350.625 -39.05859375Q344.48046875 -39.05859375 341.171875 -35.1484375Q337.86328125 -31.23828125 337.86328125 -24.01953125Q337.86328125 -16.80078125 341.171875 -12.93359375Q344.48046875 -9.06640625 350.625 -9.06640625Q354.27734375 -9.06640625 357.45703125 -10.291015625Q360.63671875 -11.515625 363.47265625 -14.0078125ZM378.33984375 -66.859375H390.9296875V-31.75390625L406.0546875 -48.125H421.30859375L403.08984375 -30.1640625L422.33984375 0.0H408.41796875L395.2265625 -22.515625L390.9296875 -18.390625V0.0H378.33984375ZM436.77734375 -31.58203125H463.890625V-19.078125H436.77734375ZM506.47265625 -43.3125Q507.890625 -46.36328125 510.08203125 -47.82421875Q512.2734375 -49.28515625 515.453125 -49.28515625Q521.68359375 -49.28515625 524.068359375 -44.98828125Q526.453125 -40.69140625 526.453125 -27.11328125V0.0H516.140625V-30.89453125Q516.140625 -36.265625 515.32421875 -38.0703125Q514.5078125 -39.875 512.359375 -39.875Q510.2109375 -39.875 509.3515625 -38.02734375Q508.4921875 -36.1796875 508.4921875 -30.89453125V0.0H498.30859375V-30.89453125Q498.30859375 -36.1796875 497.44921875 -38.02734375Q496.58984375 -39.875 494.44140625 -39.875Q492.29296875 -39.875 491.4765625 -38.0703125Q490.66015625 -36.265625 490.66015625 -30.89453125V0.0H480.34765625V-48.125H489.5V-43.140625Q490.57421875 -45.9765625 492.9375 -47.630859375Q495.30078125 -49.28515625 498.22265625 -49.28515625Q501.14453125 -49.28515625 503.55078125 -47.544921875Q505.95703125 -45.8046875 506.47265625 -43.3125ZM575.39453125 -2.44921875Q572.21484375 -0.6015625 568.5625 0.322265625Q564.91015625 1.24609375 560.69921875 1.24609375Q549.5703125 1.24609375 543.296875 -5.45703125Q537.0234375 -12.16015625 537.0234375 -24.01953125Q537.0234375 -35.921875 543.33984375 -42.646484375Q549.65625 -49.37109375 560.78515625 -49.37109375Q564.65234375 -49.37109375 568.240234375 -48.46875Q571.828125 -47.56640625 575.39453125 -45.67578125V-34.16015625Q572.64453125 -36.5234375 569.357421875 -37.791015625Q566.0703125 -39.05859375 562.546875 -39.05859375Q556.40234375 -39.05859375 553.09375 -35.1484375Q549.78515625 -31.23828125 549.78515625 -24.01953125Q549.78515625 -16.80078125 553.09375 -12.93359375Q556.40234375 -9.06640625 562.546875 -9.06640625Q566.19921875 -9.06640625 569.37890625 -10.291015625Q572.55859375 -11.515625 575.39453125 -14.0078125ZM601.77734375 -6.7890625V18.3046875H589.23046875V-48.125H601.77734375V-40.90625Q603.75390625 -45.07421875 606.9765625 -47.1796875Q610.19921875 -49.28515625 614.5390625 -49.28515625Q622.7890625 -49.28515625 627.34375 -42.66796875Q631.8984375 -36.05078125 631.8984375 -24.01953125Q631.8984375 -11.81640625 627.279296875 -5.28515625Q622.66015625 1.24609375 614.109375 1.24609375Q610.2421875 1.24609375 607.169921875 -0.751953125Q604.09765625 -2.75 601.77734375 -6.7890625ZM619.30859375 -24.10546875Q619.30859375 -31.06640625 616.98828125 -35.01953125Q614.66796875 -38.97265625 610.5859375 -38.97265625Q606.50390625 -38.97265625 604.140625 -35.01953125Q601.77734375 -31.06640625 601.77734375 -24.10546875Q601.77734375 -17.14453125 604.140625 -13.19140625Q606.50390625 -9.23828125 610.5859375 -9.23828125Q614.66796875 -9.23828125 616.98828125 -13.19140625Q619.30859375 -17.14453125 619.30859375 -24.10546875Z" fill="#FFFFFF"/>
  <!-- taglines -->
  <path transform="translate(559.19 398.52)" d="M12.82763671875 -14.25146484375V-11.87841796875Q11.7861328125 -12.48486328125 10.7314453125 -12.7880859375Q9.6767578125 -13.09130859375 8.58251953125 -13.09130859375Q6.9345703125 -13.09130859375 6.123779296875 -12.557373046875Q5.31298828125 -12.0234375 5.31298828125 -10.92919921875Q5.31298828125 -9.9404296875 5.91943359375 -9.45263671875Q6.52587890625 -8.96484375 8.9384765625 -8.50341796875L9.9140625 -8.31884765625Q11.72021484375 -7.97607421875 12.649658203125 -6.94775390625Q13.5791015625 -5.91943359375 13.5791015625 -4.271484375Q13.5791015625 -2.0830078125 12.0234375 -0.850341796875Q10.4677734375 0.38232421875 7.69921875 0.38232421875Q6.60498046875 0.38232421875 5.4052734375 0.151611328125Q4.20556640625 -0.0791015625 2.80810546875 -0.54052734375V-3.04541015625Q4.166015625 -2.3466796875 5.4052734375 -1.997314453125Q6.64453125 -1.64794921875 7.751953125 -1.64794921875Q9.3603515625 -1.64794921875 10.24365234375 -2.300537109375Q11.126953125 -2.953125 11.126953125 -4.12646484375Q11.126953125 -5.81396484375 7.89697265625 -6.4599609375L7.79150390625 -6.486328125L6.8818359375 -6.6708984375Q4.78564453125 -7.07958984375 3.8232421875 -8.048583984375Q2.86083984375 -9.017578125 2.86083984375 -10.69189453125Q2.86083984375 -12.814453125 4.2978515625 -13.968017578125Q5.73486328125 -15.12158203125 8.39794921875 -15.12158203125Q9.58447265625 -15.12158203125 10.6787109375 -14.904052734375Q11.77294921875 -14.6865234375 12.82763671875 -14.25146484375ZM25.51025390625 -7.42236328125H24.7060546875Q22.58349609375 -7.42236328125 21.509033203125 -6.677490234375Q20.4345703125 -5.9326171875 20.4345703125 -4.4560546875Q20.4345703125 -3.12451171875 21.23876953125 -2.38623046875Q22.04296875 -1.64794921875 23.466796875 -1.64794921875Q25.470703125 -1.64794921875 26.61767578125 -3.038818359375Q27.7646484375 -4.4296875 27.77783203125 -6.8818359375V-7.42236328125ZM30.216796875 -8.42431640625V0.0H27.77783203125V-2.1884765625Q27.0 -0.8701171875 25.820068359375 -0.243896484375Q24.64013671875 0.38232421875 22.95263671875 0.38232421875Q20.6982421875 0.38232421875 19.353515625 -0.889892578125Q18.0087890625 -2.162109375 18.0087890625 -4.2978515625Q18.0087890625 -6.76318359375 19.663330078125 -8.0419921875Q21.31787109375 -9.32080078125 24.521484375 -9.32080078125H27.77783203125V-9.703125Q27.7646484375 -11.4697265625 26.88134765625 -12.267333984375Q25.998046875 -13.06494140625 24.06005859375 -13.06494140625Q22.82080078125 -13.06494140625 21.55517578125 -12.708984375Q20.28955078125 -12.35302734375 19.08984375 -11.66748046875V-14.09326171875Q20.4345703125 -14.607421875 21.667236328125 -14.864501953125Q22.89990234375 -15.12158203125 24.06005859375 -15.12158203125Q25.892578125 -15.12158203125 27.191162109375 -14.5810546875Q28.48974609375 -14.04052734375 29.2939453125 -12.95947265625Q29.794921875 -12.30029296875 30.005859375 -11.331298828125Q30.216796875 -10.3623046875 30.216796875 -8.42431640625ZM33.8291015625 -14.765625H36.34716796875L40.6318359375 -2.373046875L44.9296875 -14.765625H47.44775390625L42.20068359375 0.0H39.076171875ZM63.42626953125 -7.9892578125V-6.802734375H52.9189453125V-6.7236328125Q52.9189453125 -4.31103515625 54.177978515625 -2.99267578125Q55.43701171875 -1.67431640625 57.73095703125 -1.67431640625Q58.89111328125 -1.67431640625 60.15673828125 -2.04345703125Q61.42236328125 -2.41259765625 62.859375 -3.1640625V-0.75146484375Q61.47509765625 -0.1845703125 60.189697265625 0.098876953125Q58.904296875 0.38232421875 57.70458984375 0.38232421875Q54.263671875 0.38232421875 52.32568359375 -1.680908203125Q50.3876953125 -3.744140625 50.3876953125 -7.36962890625Q50.3876953125 -10.90283203125 52.2861328125 -13.01220703125Q54.1845703125 -15.12158203125 57.3486328125 -15.12158203125Q60.169921875 -15.12158203125 61.798095703125 -13.2099609375Q63.42626953125 -11.29833984375 63.42626953125 -7.9892578125ZM61.00048828125 -8.701171875Q60.94775390625 -10.8369140625 59.991943359375 -11.950927734375Q59.0361328125 -13.06494140625 57.2431640625 -13.06494140625Q55.48974609375 -13.06494140625 54.35595703125 -11.90478515625Q53.22216796875 -10.74462890625 53.01123046875 -8.68798828125ZM87.7236328125 -11.390625H91.0458984375V-7.36962890625H87.7236328125ZM122.2119140625 -5.3525390625Q122.2119140625 -3.7177734375 122.811767578125 -2.88720703125Q123.41162109375 -2.056640625 124.5849609375 -2.056640625H127.41943359375V0.0H124.34765625Q122.17236328125 0.0 120.979248046875 -1.3974609375Q119.7861328125 -2.794921875 119.7861328125 -5.3525390625V-18.76025390625H115.89697265625V-20.65869140625H122.2119140625ZM138.1640625 -13.06494140625Q136.318359375 -13.06494140625 135.369140625 -11.6279296875Q134.419921875 -10.19091796875 134.419921875 -7.36962890625Q134.419921875 -4.5615234375 135.369140625 -3.117919921875Q136.318359375 -1.67431640625 138.1640625 -1.67431640625Q140.02294921875 -1.67431640625 140.97216796875 -3.117919921875Q141.92138671875 -4.5615234375 141.92138671875 -7.36962890625Q141.92138671875 -10.19091796875 140.97216796875 -11.6279296875Q140.02294921875 -13.06494140625 138.1640625 -13.06494140625ZM138.1640625 -15.12158203125Q141.23583984375 -15.12158203125 142.864013671875 -13.130859375Q144.4921875 -11.14013671875 144.4921875 -7.36962890625Q144.4921875 -3.5859375 142.87060546875 -1.601806640625Q141.2490234375 0.38232421875 138.1640625 0.38232421875Q135.09228515625 0.38232421875 133.470703125 -1.601806640625Q131.84912109375 -3.5859375 131.84912109375 -7.36962890625Q131.84912109375 -11.14013671875 133.470703125 -13.130859375Q135.09228515625 -15.12158203125 138.1640625 -15.12158203125ZM154.41943359375 -13.06494140625Q152.57373046875 -13.06494140625 151.62451171875 -11.6279296875Q150.67529296875 -10.19091796875 150.67529296875 -7.36962890625Q150.67529296875 -4.5615234375 151.62451171875 -3.117919921875Q152.57373046875 -1.67431640625 154.41943359375 -1.67431640625Q156.2783203125 -1.67431640625 157.2275390625 -3.117919921875Q158.1767578125 -4.5615234375 158.1767578125 -7.36962890625Q158.1767578125 -10.19091796875 157.2275390625 -11.6279296875Q156.2783203125 -13.06494140625 154.41943359375 -13.06494140625ZM154.41943359375 -15.12158203125Q157.4912109375 -15.12158203125 159.119384765625 -13.130859375Q160.74755859375 -11.14013671875 160.74755859375 -7.36962890625Q160.74755859375 -3.5859375 159.1259765625 -1.601806640625Q157.50439453125 0.38232421875 154.41943359375 0.38232421875Q151.34765625 0.38232421875 149.72607421875 -1.601806640625Q148.1044921875 -3.5859375 148.1044921875 -7.36962890625Q148.1044921875 -11.14013671875 149.72607421875 -13.130859375Q151.34765625 -15.12158203125 154.41943359375 -15.12158203125ZM167.49755859375 -1.85888671875V5.6162109375H165.05859375V-14.765625H167.49755859375V-12.88037109375Q168.10400390625 -13.974609375 169.112548828125 -14.548095703125Q170.12109375 -15.12158203125 171.439453125 -15.12158203125Q174.11572265625 -15.12158203125 175.638427734375 -13.0517578125Q177.1611328125 -10.98193359375 177.1611328125 -7.31689453125Q177.1611328125 -3.7177734375 175.6318359375 -1.667724609375Q174.1025390625 0.38232421875 171.439453125 0.38232421875Q170.0947265625 0.38232421875 169.086181640625 -0.191162109375Q168.07763671875 -0.7646484375 167.49755859375 -1.85888671875ZM174.61669921875 -7.36962890625Q174.61669921875 -10.19091796875 173.726806640625 -11.6279296875Q172.8369140625 -13.06494140625 171.08349609375 -13.06494140625Q169.31689453125 -13.06494140625 168.4072265625 -11.621337890625Q167.49755859375 -10.177734375 167.49755859375 -7.36962890625Q167.49755859375 -4.57470703125 168.4072265625 -3.12451171875Q169.31689453125 -1.67431640625 171.08349609375 -1.67431640625Q172.8369140625 -1.67431640625 173.726806640625 -3.111328125Q174.61669921875 -4.54833984375 174.61669921875 -7.36962890625ZM201.51123046875 -11.390625H204.83349609375V-7.36962890625H201.51123046875ZM240.40283203125 -14.25146484375V-11.87841796875Q239.361328125 -12.48486328125 238.306640625 -12.7880859375Q237.251953125 -13.09130859375 236.15771484375 -13.09130859375Q234.509765625 -13.09130859375 233.698974609375 -12.557373046875Q232.88818359375 -12.0234375 232.88818359375 -10.92919921875Q232.88818359375 -9.9404296875 233.49462890625 -9.45263671875Q234.10107421875 -8.96484375 236.513671875 -8.50341796875L237.4892578125 -8.31884765625Q239.29541015625 -7.97607421875 240.224853515625 -6.94775390625Q241.154296875 -5.91943359375 241.154296875 -4.271484375Q241.154296875 -2.0830078125 239.5986328125 -0.850341796875Q238.04296875 0.38232421875 235.2744140625 0.38232421875Q234.18017578125 0.38232421875 232.98046875 0.151611328125Q231.78076171875 -0.0791015625 230.38330078125 -0.54052734375V-3.04541015625Q231.7412109375 -2.3466796875 232.98046875 -1.997314453125Q234.2197265625 -1.64794921875 235.3271484375 -1.64794921875Q236.935546875 -1.64794921875 237.81884765625 -2.300537109375Q238.7021484375 -2.953125 238.7021484375 -4.12646484375Q238.7021484375 -5.81396484375 235.47216796875 -6.4599609375L235.36669921875 -6.486328125L234.45703125 -6.6708984375Q232.36083984375 -7.07958984375 231.3984375 -8.048583984375Q230.43603515625 -9.017578125 230.43603515625 -10.69189453125Q230.43603515625 -12.814453125 231.873046875 -13.968017578125Q233.31005859375 -15.12158203125 235.97314453125 -15.12158203125Q237.15966796875 -15.12158203125 238.25390625 -14.904052734375Q239.34814453125 -14.6865234375 240.40283203125 -14.25146484375ZM248.7744140625 -1.85888671875V5.6162109375H246.33544921875V-14.765625H248.7744140625V-12.88037109375Q249.380859375 -13.974609375 250.389404296875 -14.548095703125Q251.39794921875 -15.12158203125 252.71630859375 -15.12158203125Q255.392578125 -15.12158203125 256.915283203125 -13.0517578125Q258.43798828125 -10.98193359375 258.43798828125 -7.31689453125Q258.43798828125 -3.7177734375 256.90869140625 -1.667724609375Q255.37939453125 0.38232421875 252.71630859375 0.38232421875Q251.37158203125 0.38232421875 250.363037109375 -0.191162109375Q249.3544921875 -0.7646484375 248.7744140625 -1.85888671875ZM255.8935546875 -7.36962890625Q255.8935546875 -10.19091796875 255.003662109375 -11.6279296875Q254.11376953125 -13.06494140625 252.3603515625 -13.06494140625Q250.59375 -13.06494140625 249.68408203125 -11.621337890625Q248.7744140625 -10.177734375 248.7744140625 -7.36962890625Q248.7744140625 -4.57470703125 249.68408203125 -3.12451171875Q250.59375 -1.67431640625 252.3603515625 -1.67431640625Q254.11376953125 -1.67431640625 255.003662109375 -3.111328125Q255.8935546875 -4.54833984375 255.8935546875 -7.36962890625ZM274.74609375 -7.9892578125V-6.802734375H264.23876953125V-6.7236328125Q264.23876953125 -4.31103515625 265.497802734375 -2.99267578125Q266.7568359375 -1.67431640625 269.05078125 -1.67431640625Q270.2109375 -1.67431640625 271.4765625 -2.04345703125Q272.7421875 -2.41259765625 274.17919921875 -3.1640625V-0.75146484375Q272.794921875 -0.1845703125 271.509521484375 0.098876953125Q270.22412109375 0.38232421875 269.0244140625 0.38232421875Q265.58349609375 0.38232421875 263.6455078125 -1.680908203125Q261.70751953125 -3.744140625 261.70751953125 -7.36962890625Q261.70751953125 -10.90283203125 263.60595703125 -13.01220703125Q265.50439453125 -15.12158203125 268.66845703125 -15.12158203125Q271.48974609375 -15.12158203125 273.117919921875 -13.2099609375Q274.74609375 -11.29833984375 274.74609375 -7.9892578125ZM272.3203125 -8.701171875Q272.267578125 -10.8369140625 271.311767578125 -11.950927734375Q270.35595703125 -13.06494140625 268.56298828125 -13.06494140625Q266.8095703125 -13.06494140625 265.67578125 -11.90478515625Q264.5419921875 -10.74462890625 264.3310546875 -8.68798828125ZM291.00146484375 -7.9892578125V-6.802734375H280.494140625V-6.7236328125Q280.494140625 -4.31103515625 281.753173828125 -2.99267578125Q283.01220703125 -1.67431640625 285.30615234375 -1.67431640625Q286.46630859375 -1.67431640625 287.73193359375 -2.04345703125Q288.99755859375 -2.41259765625 290.4345703125 -3.1640625V-0.75146484375Q289.05029296875 -0.1845703125 287.764892578125 0.098876953125Q286.4794921875 0.38232421875 285.27978515625 0.38232421875Q281.8388671875 0.38232421875 279.90087890625 -1.680908203125Q277.962890625 -3.744140625 277.962890625 -7.36962890625Q277.962890625 -10.90283203125 279.861328125 -13.01220703125Q281.759765625 -15.12158203125 284.923828125 -15.12158203125Q287.7451171875 -15.12158203125 289.373291015625 -13.2099609375Q291.00146484375 -11.29833984375 291.00146484375 -7.9892578125ZM288.57568359375 -8.701171875Q288.52294921875 -10.8369140625 287.567138671875 -11.950927734375Q286.611328125 -13.06494140625 284.818359375 -13.06494140625Q283.06494140625 -13.06494140625 281.93115234375 -11.90478515625Q280.79736328125 -10.74462890625 280.58642578125 -8.68798828125ZM303.908203125 -12.88037109375V-20.513671875H306.333984375V0.0H303.908203125V-1.85888671875Q303.3017578125 -0.7646484375 302.293212890625 -0.191162109375Q301.28466796875 0.38232421875 299.96630859375 0.38232421875Q297.2900390625 0.38232421875 295.754150390625 -1.694091796875Q294.21826171875 -3.7705078125 294.21826171875 -7.42236328125Q294.21826171875 -11.021484375 295.7607421875 -13.071533203125Q297.30322265625 -15.12158203125 299.96630859375 -15.12158203125Q301.2978515625 -15.12158203125 302.31298828125 -14.548095703125Q303.328125 -13.974609375 303.908203125 -12.88037109375ZM296.77587890625 -7.36962890625Q296.77587890625 -4.54833984375 297.67236328125 -3.111328125Q298.56884765625 -1.67431640625 300.322265625 -1.67431640625Q302.07568359375 -1.67431640625 302.991943359375 -3.12451171875Q303.908203125 -4.57470703125 303.908203125 -7.36962890625Q303.908203125 -10.177734375 302.991943359375 -11.621337890625Q302.07568359375 -13.06494140625 300.322265625 -13.06494140625Q298.56884765625 -13.06494140625 297.67236328125 -11.6279296875Q296.77587890625 -10.19091796875 296.77587890625 -7.36962890625ZM331.55419921875 -11.390625H334.87646484375V-7.36962890625H331.55419921875ZM365.712890625 -18.9580078125V-14.765625H371.2236328125V-12.88037109375H365.712890625V-4.86474609375Q365.712890625 -3.22998046875 366.33251953125 -2.583984375Q366.9521484375 -1.93798828125 368.49462890625 -1.93798828125H371.2236328125V0.0H368.25732421875Q365.5283203125 0.0 364.40771484375 -1.09423828125Q363.287109375 -2.1884765625 363.287109375 -4.86474609375V-12.88037109375H359.34521484375V-14.765625H363.287109375V-18.9580078125ZM377.24853515625 -14.765625H383.4580078125V-1.88525390625H388.27001953125V0.0H376.22021484375V-1.88525390625H381.0322265625V-12.88037109375H377.24853515625ZM381.0322265625 -20.513671875H383.4580078125V-17.44189453125H381.0322265625ZM399.041015625 -13.2626953125Q399.4892578125 -14.2119140625 400.181396484375 -14.666748046875Q400.87353515625 -15.12158203125 401.84912109375 -15.12158203125Q403.62890625 -15.12158203125 404.360595703125 -13.743896484375Q405.09228515625 -12.3662109375 405.09228515625 -8.55615234375V0.0H402.87744140625V-8.45068359375Q402.87744140625 -11.5751953125 402.528076171875 -12.333251953125Q402.1787109375 -13.09130859375 401.255859375 -13.09130859375Q400.201171875 -13.09130859375 399.812255859375 -12.280517578125Q399.42333984375 -11.4697265625 399.42333984375 -8.45068359375V0.0H397.20849609375V-8.45068359375Q397.20849609375 -11.61474609375 396.832763671875 -12.35302734375Q396.45703125 -13.09130859375 395.4814453125 -13.09130859375Q394.51904296875 -13.09130859375 394.143310546875 -12.280517578125Q393.767578125 -11.4697265625 393.767578125 -8.45068359375V0.0H391.56591796875V-14.765625H393.767578125V-13.5Q394.20263671875 -14.291015625 394.855224609375 -14.706298828125Q395.5078125 -15.12158203125 396.33837890625 -15.12158203125Q397.34033203125 -15.12158203125 398.006103515625 -14.66015625Q398.671875 -14.19873046875 399.041015625 -13.2626953125ZM421.04443359375 -7.9892578125V-6.802734375H410.537109375V-6.7236328125Q410.537109375 -4.31103515625 411.796142578125 -2.99267578125Q413.05517578125 -1.67431640625 415.34912109375 -1.67431640625Q416.50927734375 -1.67431640625 417.77490234375 -2.04345703125Q419.04052734375 -2.41259765625 420.4775390625 -3.1640625V-0.75146484375Q419.09326171875 -0.1845703125 417.807861328125 0.098876953125Q416.5224609375 0.38232421875 415.32275390625 0.38232421875Q411.8818359375 0.38232421875 409.94384765625 -1.680908203125Q408.005859375 -3.744140625 408.005859375 -7.36962890625Q408.005859375 -10.90283203125 409.904296875 -13.01220703125Q411.802734375 -15.12158203125 414.966796875 -15.12158203125Q417.7880859375 -15.12158203125 419.416259765625 -13.2099609375Q421.04443359375 -11.29833984375 421.04443359375 -7.9892578125ZM418.61865234375 -8.701171875Q418.56591796875 -10.8369140625 417.610107421875 -11.950927734375Q416.654296875 -13.06494140625 414.861328125 -13.06494140625Q413.10791015625 -13.06494140625 411.97412109375 -11.90478515625Q410.84033203125 -10.74462890625 410.62939453125 -8.68798828125ZM435.46728515625 -14.25146484375V-11.87841796875Q434.42578125 -12.48486328125 433.37109375 -12.7880859375Q432.31640625 -13.09130859375 431.22216796875 -13.09130859375Q429.57421875 -13.09130859375 428.763427734375 -12.557373046875Q427.95263671875 -12.0234375 427.95263671875 -10.92919921875Q427.95263671875 -9.9404296875 428.55908203125 -9.45263671875Q429.16552734375 -8.96484375 431.578125 -8.50341796875L432.5537109375 -8.31884765625Q434.35986328125 -7.97607421875 435.289306640625 -6.94775390625Q436.21875 -5.91943359375 436.21875 -4.271484375Q436.21875 -2.0830078125 434.6630859375 -0.850341796875Q433.107421875 0.38232421875 430.3388671875 0.38232421875Q429.24462890625 0.38232421875 428.044921875 0.151611328125Q426.84521484375 -0.0791015625 425.44775390625 -0.54052734375V-3.04541015625Q426.8056640625 -2.3466796875 428.044921875 -1.997314453125Q429.2841796875 -1.64794921875 430.3916015625 -1.64794921875Q432.0 -1.64794921875 432.88330078125 -2.300537109375Q433.7666015625 -2.953125 433.7666015625 -4.12646484375Q433.7666015625 -5.81396484375 430.53662109375 -6.4599609375L430.43115234375 -6.486328125L429.521484375 -6.6708984375Q427.42529296875 -7.07958984375 426.462890625 -8.048583984375Q425.50048828125 -9.017578125 425.50048828125 -10.69189453125Q425.50048828125 -12.814453125 426.9375 -13.968017578125Q428.37451171875 -15.12158203125 431.03759765625 -15.12158203125Q432.22412109375 -15.12158203125 433.318359375 -14.904052734375Q434.41259765625 -14.6865234375 435.46728515625 -14.25146484375ZM446.98974609375 -18.9580078125V-14.765625H452.50048828125V-12.88037109375H446.98974609375V-4.86474609375Q446.98974609375 -3.22998046875 447.609375 -2.583984375Q448.22900390625 -1.93798828125 449.771484375 -1.93798828125H452.50048828125V0.0H449.5341796875Q446.80517578125 0.0 445.6845703125 -1.09423828125Q444.56396484375 -2.1884765625 444.56396484375 -4.86474609375V-12.88037109375H440.6220703125V-14.765625H444.56396484375V-18.9580078125ZM464.4052734375 -7.42236328125H463.60107421875Q461.478515625 -7.42236328125 460.404052734375 -6.677490234375Q459.32958984375 -5.9326171875 459.32958984375 -4.4560546875Q459.32958984375 -3.12451171875 460.1337890625 -2.38623046875Q460.93798828125 -1.64794921875 462.36181640625 -1.64794921875Q464.36572265625 -1.64794921875 465.5126953125 -3.038818359375Q466.65966796875 -4.4296875 466.6728515625 -6.8818359375V-7.42236328125ZM469.11181640625 -8.42431640625V0.0H466.6728515625V-2.1884765625Q465.89501953125 -0.8701171875 464.715087890625 -0.243896484375Q463.53515625 0.38232421875 461.84765625 0.38232421875Q459.59326171875 0.38232421875 458.24853515625 -0.889892578125Q456.90380859375 -2.162109375 456.90380859375 -4.2978515625Q456.90380859375 -6.76318359375 458.558349609375 -8.0419921875Q460.212890625 -9.32080078125 463.41650390625 -9.32080078125H466.6728515625V-9.703125Q466.65966796875 -11.4697265625 465.7763671875 -12.267333984375Q464.89306640625 -13.06494140625 462.955078125 -13.06494140625Q461.7158203125 -13.06494140625 460.4501953125 -12.708984375Q459.1845703125 -12.35302734375 457.98486328125 -11.66748046875V-14.09326171875Q459.32958984375 -14.607421875 460.562255859375 -14.864501953125Q461.794921875 -15.12158203125 462.955078125 -15.12158203125Q464.78759765625 -15.12158203125 466.086181640625 -14.5810546875Q467.384765625 -14.04052734375 468.18896484375 -12.95947265625Q468.68994140625 -12.30029296875 468.90087890625 -11.331298828125Q469.11181640625 -10.3623046875 469.11181640625 -8.42431640625ZM480.31787109375 -13.2626953125Q480.76611328125 -14.2119140625 481.458251953125 -14.666748046875Q482.150390625 -15.12158203125 483.1259765625 -15.12158203125Q484.90576171875 -15.12158203125 485.637451171875 -13.743896484375Q486.369140625 -12.3662109375 486.369140625 -8.55615234375V0.0H484.154296875V-8.45068359375Q484.154296875 -11.5751953125 483.804931640625 -12.333251953125Q483.45556640625 -13.09130859375 482.53271484375 -13.09130859375Q481.47802734375 -13.09130859375 481.089111328125 -12.280517578125Q480.7001953125 -11.4697265625 480.7001953125 -8.45068359375V0.0H478.4853515625V-8.45068359375Q478.4853515625 -11.61474609375 478.109619140625 -12.35302734375Q477.73388671875 -13.09130859375 476.75830078125 -13.09130859375Q475.7958984375 -13.09130859375 475.420166015625 -12.280517578125Q475.04443359375 -11.4697265625 475.04443359375 -8.45068359375V0.0H472.8427734375V-14.765625H475.04443359375V-13.5Q475.4794921875 -14.291015625 476.132080078125 -14.706298828125Q476.78466796875 -15.12158203125 477.615234375 -15.12158203125Q478.6171875 -15.12158203125 479.282958984375 -14.66015625Q479.94873046875 -14.19873046875 480.31787109375 -13.2626953125ZM492.60498046875 -1.85888671875V5.6162109375H490.166015625V-14.765625H492.60498046875V-12.88037109375Q493.21142578125 -13.974609375 494.219970703125 -14.548095703125Q495.228515625 -15.12158203125 496.546875 -15.12158203125Q499.22314453125 -15.12158203125 500.745849609375 -13.0517578125Q502.2685546875 -10.98193359375 502.2685546875 -7.31689453125Q502.2685546875 -3.7177734375 500.7392578125 -1.667724609375Q499.2099609375 0.38232421875 496.546875 0.38232421875Q495.2021484375 0.38232421875 494.193603515625 -0.191162109375Q493.18505859375 -0.7646484375 492.60498046875 -1.85888671875ZM499.72412109375 -7.36962890625Q499.72412109375 -10.19091796875 498.834228515625 -11.6279296875Q497.9443359375 -13.06494140625 496.19091796875 -13.06494140625Q494.42431640625 -13.06494140625 493.5146484375 -11.621337890625Q492.60498046875 -10.177734375 492.60498046875 -7.36962890625Q492.60498046875 -4.57470703125 493.5146484375 -3.12451171875Q494.42431640625 -1.67431640625 496.19091796875 -1.67431640625Q497.9443359375 -1.67431640625 498.834228515625 -3.111328125Q499.72412109375 -4.54833984375 499.72412109375 -7.36962890625ZM516.744140625 -14.25146484375V-11.87841796875Q515.70263671875 -12.48486328125 514.64794921875 -12.7880859375Q513.59326171875 -13.09130859375 512.4990234375 -13.09130859375Q510.85107421875 -13.09130859375 510.040283203125 -12.557373046875Q509.2294921875 -12.0234375 509.2294921875 -10.92919921875Q509.2294921875 -9.9404296875 509.8359375 -9.45263671875Q510.4423828125 -8.96484375 512.85498046875 -8.50341796875L513.83056640625 -8.31884765625Q515.63671875 -7.97607421875 516.566162109375 -6.94775390625Q517.49560546875 -5.91943359375 517.49560546875 -4.271484375Q517.49560546875 -2.0830078125 515.93994140625 -0.850341796875Q514.38427734375 0.38232421875 511.61572265625 0.38232421875Q510.521484375 0.38232421875 509.32177734375 0.151611328125Q508.1220703125 -0.0791015625 506.724609375 -0.54052734375V-3.04541015625Q508.08251953125 -2.3466796875 509.32177734375 -1.997314453125Q510.56103515625 -1.64794921875 511.66845703125 -1.64794921875Q513.27685546875 -1.64794921875 514.16015625 -2.300537109375Q515.04345703125 -2.953125 515.04345703125 -4.12646484375Q515.04345703125 -5.81396484375 511.8134765625 -6.4599609375L511.7080078125 -6.486328125L510.79833984375 -6.6708984375Q508.7021484375 -7.07958984375 507.73974609375 -8.048583984375Q506.77734375 -9.017578125 506.77734375 -10.69189453125Q506.77734375 -12.814453125 508.21435546875 -13.968017578125Q509.6513671875 -15.12158203125 512.314453125 -15.12158203125Q513.5009765625 -15.12158203125 514.59521484375 -14.904052734375Q515.689453125 -14.6865234375 516.744140625 -14.25146484375Z" fill="#48485A"/>
  <path transform="translate(559.46 444.43)" d="M12.1025390625 -7.36962890625Q12.1025390625 -10.19091796875 11.2060546875 -11.6279296875Q10.3095703125 -13.06494140625 8.55615234375 -13.06494140625Q6.78955078125 -13.06494140625 5.8798828125 -11.621337890625Q4.97021484375 -10.177734375 4.97021484375 -7.36962890625Q4.97021484375 -4.57470703125 5.8798828125 -3.12451171875Q6.78955078125 -1.67431640625 8.55615234375 -1.67431640625Q10.3095703125 -1.67431640625 11.2060546875 -3.111328125Q12.1025390625 -4.54833984375 12.1025390625 -7.36962890625ZM4.97021484375 -12.88037109375Q5.55029296875 -13.96142578125 6.572021484375 -14.54150390625Q7.59375 -15.12158203125 8.9384765625 -15.12158203125Q11.6015625 -15.12158203125 13.130859375 -13.071533203125Q14.66015625 -11.021484375 14.66015625 -7.42236328125Q14.66015625 -3.7705078125 13.124267578125 -1.694091796875Q11.58837890625 0.38232421875 8.912109375 0.38232421875Q7.59375 0.38232421875 6.585205078125 -0.191162109375Q5.57666015625 -0.7646484375 4.97021484375 -1.85888671875V0.0H2.54443359375V-20.513671875H4.97021484375ZM31.482421875 -11.72021484375Q30.70458984375 -12.32666015625 29.900390625 -12.603515625Q29.09619140625 -12.88037109375 28.1337890625 -12.88037109375Q25.8662109375 -12.88037109375 24.66650390625 -11.45654296875Q23.466796875 -10.03271484375 23.466796875 -7.34326171875V0.0H21.02783203125V-14.765625H23.466796875V-11.87841796875Q24.0732421875 -13.447265625 25.332275390625 -14.284423828125Q26.59130859375 -15.12158203125 28.318359375 -15.12158203125Q29.21484375 -15.12158203125 29.99267578125 -14.8974609375Q30.7705078125 -14.67333984375 31.482421875 -14.19873046875ZM40.6318359375 -13.06494140625Q38.7861328125 -13.06494140625 37.8369140625 -11.6279296875Q36.8876953125 -10.19091796875 36.8876953125 -7.36962890625Q36.8876953125 -4.5615234375 37.8369140625 -3.117919921875Q38.7861328125 -1.67431640625 40.6318359375 -1.67431640625Q42.49072265625 -1.67431640625 43.43994140625 -3.117919921875Q44.38916015625 -4.5615234375 44.38916015625 -7.36962890625Q44.38916015625 -10.19091796875 43.43994140625 -11.6279296875Q42.49072265625 -13.06494140625 40.6318359375 -13.06494140625ZM40.6318359375 -15.12158203125Q43.70361328125 -15.12158203125 45.331787109375 -13.130859375Q46.9599609375 -11.14013671875 46.9599609375 -7.36962890625Q46.9599609375 -3.5859375 45.33837890625 -1.601806640625Q43.716796875 0.38232421875 40.6318359375 0.38232421875Q37.56005859375 0.38232421875 35.9384765625 -1.601806640625Q34.31689453125 -3.5859375 34.31689453125 -7.36962890625Q34.31689453125 -11.14013671875 35.9384765625 -13.130859375Q37.56005859375 -15.12158203125 40.6318359375 -15.12158203125ZM48.76611328125 -14.765625H51.16552734375L53.736328125 -2.83447265625L55.845703125 -10.45458984375H57.91552734375L60.05126953125 -2.83447265625L62.6220703125 -14.765625H65.021484375L61.5673828125 0.0H59.2470703125L56.88720703125 -8.0947265625L54.54052734375 0.0H52.22021484375ZM77.84912109375 -14.25146484375V-11.87841796875Q76.8076171875 -12.48486328125 75.7529296875 -12.7880859375Q74.6982421875 -13.09130859375 73.60400390625 -13.09130859375Q71.9560546875 -13.09130859375 71.145263671875 -12.557373046875Q70.33447265625 -12.0234375 70.33447265625 -10.92919921875Q70.33447265625 -9.9404296875 70.94091796875 -9.45263671875Q71.54736328125 -8.96484375 73.9599609375 -8.50341796875L74.935546875 -8.31884765625Q76.74169921875 -7.97607421875 77.671142578125 -6.94775390625Q78.6005859375 -5.91943359375 78.6005859375 -4.271484375Q78.6005859375 -2.0830078125 77.044921875 -0.850341796875Q75.4892578125 0.38232421875 72.720703125 0.38232421875Q71.62646484375 0.38232421875 70.4267578125 0.151611328125Q69.22705078125 -0.0791015625 67.82958984375 -0.54052734375V-3.04541015625Q69.1875 -2.3466796875 70.4267578125 -1.997314453125Q71.666015625 -1.64794921875 72.7734375 -1.64794921875Q74.3818359375 -1.64794921875 75.26513671875 -2.300537109375Q76.1484375 -2.953125 76.1484375 -4.12646484375Q76.1484375 -5.81396484375 72.91845703125 -6.4599609375L72.81298828125 -6.486328125L71.9033203125 -6.6708984375Q69.80712890625 -7.07958984375 68.8447265625 -8.048583984375Q67.88232421875 -9.017578125 67.88232421875 -10.69189453125Q67.88232421875 -12.814453125 69.3193359375 -13.968017578125Q70.75634765625 -15.12158203125 73.41943359375 -15.12158203125Q74.60595703125 -15.12158203125 75.7001953125 -14.904052734375Q76.79443359375 -14.6865234375 77.84912109375 -14.25146484375ZM95.93701171875 -7.9892578125V-6.802734375H85.4296875V-6.7236328125Q85.4296875 -4.31103515625 86.688720703125 -2.99267578125Q87.94775390625 -1.67431640625 90.24169921875 -1.67431640625Q91.40185546875 -1.67431640625 92.66748046875 -2.04345703125Q93.93310546875 -2.41259765625 95.3701171875 -3.1640625V-0.75146484375Q93.98583984375 -0.1845703125 92.700439453125 0.098876953125Q91.4150390625 0.38232421875 90.21533203125 0.38232421875Q86.7744140625 0.38232421875 84.83642578125 -1.680908203125Q82.8984375 -3.744140625 82.8984375 -7.36962890625Q82.8984375 -10.90283203125 84.796875 -13.01220703125Q86.6953125 -15.12158203125 89.859375 -15.12158203125Q92.6806640625 -15.12158203125 94.308837890625 -13.2099609375Q95.93701171875 -11.29833984375 95.93701171875 -7.9892578125ZM93.51123046875 -8.701171875Q93.45849609375 -10.8369140625 92.502685546875 -11.950927734375Q91.546875 -13.06494140625 89.75390625 -13.06494140625Q88.00048828125 -13.06494140625 86.86669921875 -11.90478515625Q85.73291015625 -10.74462890625 85.52197265625 -8.68798828125ZM112.75927734375 -11.72021484375Q111.9814453125 -12.32666015625 111.17724609375 -12.603515625Q110.373046875 -12.88037109375 109.41064453125 -12.88037109375Q107.14306640625 -12.88037109375 105.943359375 -11.45654296875Q104.74365234375 -10.03271484375 104.74365234375 -7.34326171875V0.0H102.3046875V-14.765625H104.74365234375V-11.87841796875Q105.35009765625 -13.447265625 106.609130859375 -14.284423828125Q107.8681640625 -15.12158203125 109.59521484375 -15.12158203125Q110.49169921875 -15.12158203125 111.26953125 -14.8974609375Q112.04736328125 -14.67333984375 112.75927734375 -14.19873046875ZM134.98681640625 -1.85888671875V5.6162109375H132.5478515625V-14.765625H134.98681640625V-12.88037109375Q135.59326171875 -13.974609375 136.601806640625 -14.548095703125Q137.6103515625 -15.12158203125 138.9287109375 -15.12158203125Q141.60498046875 -15.12158203125 143.127685546875 -13.0517578125Q144.650390625 -10.98193359375 144.650390625 -7.31689453125Q144.650390625 -3.7177734375 143.12109375 -1.667724609375Q141.591796875 0.38232421875 138.9287109375 0.38232421875Q137.583984375 0.38232421875 136.575439453125 -0.191162109375Q135.56689453125 -0.7646484375 134.98681640625 -1.85888671875ZM142.10595703125 -7.36962890625Q142.10595703125 -10.19091796875 141.216064453125 -11.6279296875Q140.326171875 -13.06494140625 138.57275390625 -13.06494140625Q136.80615234375 -13.06494140625 135.896484375 -11.621337890625Q134.98681640625 -10.177734375 134.98681640625 -7.36962890625Q134.98681640625 -4.57470703125 135.896484375 -3.12451171875Q136.80615234375 -1.67431640625 138.57275390625 -1.67431640625Q140.326171875 -1.67431640625 141.216064453125 -3.111328125Q142.10595703125 -4.54833984375 142.10595703125 -7.36962890625ZM154.72265625 -5.3525390625Q154.72265625 -3.7177734375 155.322509765625 -2.88720703125Q155.92236328125 -2.056640625 157.095703125 -2.056640625H159.93017578125V0.0H156.8583984375Q154.68310546875 0.0 153.489990234375 -1.3974609375Q152.296875 -2.794921875 152.296875 -5.3525390625V-18.76025390625H148.40771484375V-20.65869140625H154.72265625ZM171.80859375 -7.42236328125H171.00439453125Q168.8818359375 -7.42236328125 167.807373046875 -6.677490234375Q166.73291015625 -5.9326171875 166.73291015625 -4.4560546875Q166.73291015625 -3.12451171875 167.537109375 -2.38623046875Q168.34130859375 -1.64794921875 169.76513671875 -1.64794921875Q171.76904296875 -1.64794921875 172.916015625 -3.038818359375Q174.06298828125 -4.4296875 174.076171875 -6.8818359375V-7.42236328125ZM176.51513671875 -8.42431640625V0.0H174.076171875V-2.1884765625Q173.29833984375 -0.8701171875 172.118408203125 -0.243896484375Q170.9384765625 0.38232421875 169.2509765625 0.38232421875Q166.99658203125 0.38232421875 165.65185546875 -0.889892578125Q164.30712890625 -2.162109375 164.30712890625 -4.2978515625Q164.30712890625 -6.76318359375 165.961669921875 -8.0419921875Q167.6162109375 -9.32080078125 170.81982421875 -9.32080078125H174.076171875V-9.703125Q174.06298828125 -11.4697265625 173.1796875 -12.267333984375Q172.29638671875 -13.06494140625 170.3583984375 -13.06494140625Q169.119140625 -13.06494140625 167.853515625 -12.708984375Q166.587890625 -12.35302734375 165.38818359375 -11.66748046875V-14.09326171875Q166.73291015625 -14.607421875 167.965576171875 -14.864501953125Q169.1982421875 -15.12158203125 170.3583984375 -15.12158203125Q172.19091796875 -15.12158203125 173.489501953125 -14.5810546875Q174.7880859375 -14.04052734375 175.59228515625 -12.95947265625Q176.09326171875 -12.30029296875 176.30419921875 -11.331298828125Q176.51513671875 -10.3623046875 176.51513671875 -8.42431640625ZM190.12060546875 -4.74609375Q189.51416015625 -3.20361328125 188.578125 -0.685546875Q187.27294921875 2.794921875 186.82470703125 3.5595703125Q186.21826171875 4.587890625 185.30859375 5.10205078125Q184.39892578125 5.6162109375 183.18603515625 5.6162109375H181.23486328125V3.5859375H182.671875Q183.73974609375 3.5859375 184.34619140625 2.96630859375Q184.95263671875 2.3466796875 185.888671875 -0.2373046875L180.18017578125 -14.765625H182.7509765625L187.1279296875 -3.216796875L191.43896484375 -14.765625H194.009765625ZM207.1669921875 -7.36962890625Q207.1669921875 -10.19091796875 206.2705078125 -11.6279296875Q205.3740234375 -13.06494140625 203.62060546875 -13.06494140625Q201.85400390625 -13.06494140625 200.9443359375 -11.621337890625Q200.03466796875 -10.177734375 200.03466796875 -7.36962890625Q200.03466796875 -4.57470703125 200.9443359375 -3.12451171875Q201.85400390625 -1.67431640625 203.62060546875 -1.67431640625Q205.3740234375 -1.67431640625 206.2705078125 -3.111328125Q207.1669921875 -4.54833984375 207.1669921875 -7.36962890625ZM200.03466796875 -12.88037109375Q200.61474609375 -13.96142578125 201.636474609375 -14.54150390625Q202.658203125 -15.12158203125 204.0029296875 -15.12158203125Q206.666015625 -15.12158203125 208.1953125 -13.071533203125Q209.724609375 -11.021484375 209.724609375 -7.42236328125Q209.724609375 -3.7705078125 208.188720703125 -1.694091796875Q206.65283203125 0.38232421875 203.9765625 0.38232421875Q202.658203125 0.38232421875 201.649658203125 -0.191162109375Q200.64111328125 -0.7646484375 200.03466796875 -1.85888671875V0.0H197.60888671875V-20.513671875H200.03466796875ZM220.57470703125 -7.42236328125H219.7705078125Q217.64794921875 -7.42236328125 216.573486328125 -6.677490234375Q215.4990234375 -5.9326171875 215.4990234375 -4.4560546875Q215.4990234375 -3.12451171875 216.30322265625 -2.38623046875Q217.107421875 -1.64794921875 218.53125 -1.64794921875Q220.53515625 -1.64794921875 221.68212890625 -3.038818359375Q222.8291015625 -4.4296875 222.84228515625 -6.8818359375V-7.42236328125ZM225.28125 -8.42431640625V0.0H222.84228515625V-2.1884765625Q222.064453125 -0.8701171875 220.884521484375 -0.243896484375Q219.70458984375 0.38232421875 218.01708984375 0.38232421875Q215.7626953125 0.38232421875 214.41796875 -0.889892578125Q213.0732421875 -2.162109375 213.0732421875 -4.2978515625Q213.0732421875 -6.76318359375 214.727783203125 -8.0419921875Q216.38232421875 -9.32080078125 219.5859375 -9.32080078125H222.84228515625V-9.703125Q222.8291015625 -11.4697265625 221.94580078125 -12.267333984375Q221.0625 -13.06494140625 219.12451171875 -13.06494140625Q217.88525390625 -13.06494140625 216.61962890625 -12.708984375Q215.35400390625 -12.35302734375 214.154296875 -11.66748046875V-14.09326171875Q215.4990234375 -14.607421875 216.731689453125 -14.864501953125Q217.96435546875 -15.12158203125 219.12451171875 -15.12158203125Q220.95703125 -15.12158203125 222.255615234375 -14.5810546875Q223.55419921875 -14.04052734375 224.3583984375 -12.95947265625Q224.859375 -12.30029296875 225.0703125 -11.331298828125Q225.28125 -10.3623046875 225.28125 -8.42431640625ZM241.56298828125 -0.75146484375Q240.58740234375 -0.1845703125 239.552490234375 0.098876953125Q238.517578125 0.38232421875 237.4365234375 0.38232421875Q234.0087890625 0.38232421875 232.077392578125 -1.67431640625Q230.14599609375 -3.73095703125 230.14599609375 -7.36962890625Q230.14599609375 -11.00830078125 232.077392578125 -13.06494140625Q234.0087890625 -15.12158203125 237.4365234375 -15.12158203125Q238.50439453125 -15.12158203125 239.51953125 -14.8447265625Q240.53466796875 -14.56787109375 241.56298828125 -13.98779296875V-11.443359375Q240.6005859375 -12.30029296875 239.631591796875 -12.6826171875Q238.66259765625 -13.06494140625 237.4365234375 -13.06494140625Q235.15576171875 -13.06494140625 233.9296875 -11.58837890625Q232.70361328125 -10.11181640625 232.70361328125 -7.36962890625Q232.70361328125 -4.640625 233.936279296875 -3.157470703125Q235.1689453125 -1.67431640625 237.4365234375 -1.67431640625Q238.7021484375 -1.67431640625 239.7041015625 -2.063232421875Q240.7060546875 -2.4521484375 241.56298828125 -3.26953125ZM246.94189453125 -20.513671875H249.44677734375V-8.63525390625L255.814453125 -14.765625H258.767578125L252.95361328125 -9.2021484375L259.67724609375 0.0H256.7109375L251.2529296875 -7.6201171875L249.44677734375 -5.91943359375V0.0H246.94189453125ZM284.46240234375 -13.06494140625Q282.61669921875 -13.06494140625 281.66748046875 -11.6279296875Q280.71826171875 -10.19091796875 280.71826171875 -7.36962890625Q280.71826171875 -4.5615234375 281.66748046875 -3.117919921875Q282.61669921875 -1.67431640625 284.46240234375 -1.67431640625Q286.3212890625 -1.67431640625 287.2705078125 -3.117919921875Q288.2197265625 -4.5615234375 288.2197265625 -7.36962890625Q288.2197265625 -10.19091796875 287.2705078125 -11.6279296875Q286.3212890625 -13.06494140625 284.46240234375 -13.06494140625ZM284.46240234375 -15.12158203125Q287.5341796875 -15.12158203125 289.162353515625 -13.130859375Q290.79052734375 -11.14013671875 290.79052734375 -7.36962890625Q290.79052734375 -3.5859375 289.1689453125 -1.601806640625Q287.54736328125 0.38232421875 284.46240234375 0.38232421875Q281.390625 0.38232421875 279.76904296875 -1.601806640625Q278.1474609375 -3.5859375 278.1474609375 -7.36962890625Q278.1474609375 -11.14013671875 279.76904296875 -13.130859375Q281.390625 -15.12158203125 284.46240234375 -15.12158203125ZM307.82373046875 -11.72021484375Q307.0458984375 -12.32666015625 306.24169921875 -12.603515625Q305.4375 -12.88037109375 304.47509765625 -12.88037109375Q302.20751953125 -12.88037109375 301.0078125 -11.45654296875Q299.80810546875 -10.03271484375 299.80810546875 -7.34326171875V0.0H297.369140625V-14.765625H299.80810546875V-11.87841796875Q300.41455078125 -13.447265625 301.673583984375 -14.284423828125Q302.9326171875 -15.12158203125 304.65966796875 -15.12158203125Q305.55615234375 -15.12158203125 306.333984375 -14.8974609375Q307.11181640625 -14.67333984375 307.82373046875 -14.19873046875ZM322.83984375 -0.75146484375Q321.8642578125 -0.1845703125 320.829345703125 0.098876953125Q319.79443359375 0.38232421875 318.71337890625 0.38232421875Q315.28564453125 0.38232421875 313.354248046875 -1.67431640625Q311.4228515625 -3.73095703125 311.4228515625 -7.36962890625Q311.4228515625 -11.00830078125 313.354248046875 -13.06494140625Q315.28564453125 -15.12158203125 318.71337890625 -15.12158203125Q319.78125 -15.12158203125 320.79638671875 -14.8447265625Q321.8115234375 -14.56787109375 322.83984375 -13.98779296875V-11.443359375Q321.87744140625 -12.30029296875 320.908447265625 -12.6826171875Q319.939453125 -13.06494140625 318.71337890625 -13.06494140625Q316.4326171875 -13.06494140625 315.20654296875 -11.58837890625Q313.98046875 -10.11181640625 313.98046875 -7.36962890625Q313.98046875 -4.640625 315.213134765625 -3.157470703125Q316.44580078125 -1.67431640625 318.71337890625 -1.67431640625Q319.97900390625 -1.67431640625 320.98095703125 -2.063232421875Q321.98291015625 -2.4521484375 322.83984375 -3.26953125ZM338.96337890625 -9.1494140625V0.0H336.5244140625V-9.1494140625Q336.5244140625 -11.14013671875 335.82568359375 -12.076171875Q335.126953125 -13.01220703125 333.63720703125 -13.01220703125Q331.9365234375 -13.01220703125 331.020263671875 -11.805908203125Q330.10400390625 -10.599609375 330.10400390625 -8.34521484375V0.0H327.67822265625V-20.513671875H330.10400390625V-12.55078125Q330.75 -13.81640625 331.857421875 -14.468994140625Q332.96484375 -15.12158203125 334.48095703125 -15.12158203125Q336.7353515625 -15.12158203125 337.849365234375 -13.638427734375Q338.96337890625 -12.1552734375 338.96337890625 -9.1494140625ZM356.02294921875 -7.9892578125V-6.802734375H345.515625V-6.7236328125Q345.515625 -4.31103515625 346.774658203125 -2.99267578125Q348.03369140625 -1.67431640625 350.32763671875 -1.67431640625Q351.48779296875 -1.67431640625 352.75341796875 -2.04345703125Q354.01904296875 -2.41259765625 355.4560546875 -3.1640625V-0.75146484375Q354.07177734375 -0.1845703125 352.786376953125 0.098876953125Q351.5009765625 0.38232421875 350.30126953125 0.38232421875Q346.8603515625 0.38232421875 344.92236328125 -1.680908203125Q342.984375 -3.744140625 342.984375 -7.36962890625Q342.984375 -10.90283203125 344.8828125 -13.01220703125Q346.78125 -15.12158203125 349.9453125 -15.12158203125Q352.7666015625 -15.12158203125 354.394775390625 -13.2099609375Q356.02294921875 -11.29833984375 356.02294921875 -7.9892578125ZM353.59716796875 -8.701171875Q353.54443359375 -10.8369140625 352.588623046875 -11.950927734375Q351.6328125 -13.06494140625 349.83984375 -13.06494140625Q348.08642578125 -13.06494140625 346.95263671875 -11.90478515625Q345.81884765625 -10.74462890625 345.60791015625 -8.68798828125ZM370.44580078125 -14.25146484375V-11.87841796875Q369.404296875 -12.48486328125 368.349609375 -12.7880859375Q367.294921875 -13.09130859375 366.20068359375 -13.09130859375Q364.552734375 -13.09130859375 363.741943359375 -12.557373046875Q362.93115234375 -12.0234375 362.93115234375 -10.92919921875Q362.93115234375 -9.9404296875 363.53759765625 -9.45263671875Q364.14404296875 -8.96484375 366.556640625 -8.50341796875L367.5322265625 -8.31884765625Q369.33837890625 -7.97607421875 370.267822265625 -6.94775390625Q371.197265625 -5.91943359375 371.197265625 -4.271484375Q371.197265625 -2.0830078125 369.6416015625 -0.850341796875Q368.0859375 0.38232421875 365.3173828125 0.38232421875Q364.22314453125 0.38232421875 363.0234375 0.151611328125Q361.82373046875 -0.0791015625 360.42626953125 -0.54052734375V-3.04541015625Q361.7841796875 -2.3466796875 363.0234375 -1.997314453125Q364.2626953125 -1.64794921875 365.3701171875 -1.64794921875Q366.978515625 -1.64794921875 367.86181640625 -2.300537109375Q368.7451171875 -2.953125 368.7451171875 -4.12646484375Q368.7451171875 -5.81396484375 365.51513671875 -6.4599609375L365.40966796875 -6.486328125L364.5 -6.6708984375Q362.40380859375 -7.07958984375 361.44140625 -8.048583984375Q360.47900390625 -9.017578125 360.47900390625 -10.69189453125Q360.47900390625 -12.814453125 361.916015625 -13.968017578125Q363.35302734375 -15.12158203125 366.01611328125 -15.12158203125Q367.20263671875 -15.12158203125 368.296875 -14.904052734375Q369.39111328125 -14.6865234375 370.44580078125 -14.25146484375ZM381.96826171875 -18.9580078125V-14.765625H387.47900390625V-12.88037109375H381.96826171875V-4.86474609375Q381.96826171875 -3.22998046875 382.587890625 -2.583984375Q383.20751953125 -1.93798828125 384.75 -1.93798828125H387.47900390625V0.0H384.5126953125Q381.78369140625 0.0 380.6630859375 -1.09423828125Q379.54248046875 -2.1884765625 379.54248046875 -4.86474609375V-12.88037109375H375.6005859375V-14.765625H379.54248046875V-18.9580078125ZM405.35595703125 -11.72021484375Q404.578125 -12.32666015625 403.77392578125 -12.603515625Q402.9697265625 -12.88037109375 402.00732421875 -12.88037109375Q399.73974609375 -12.88037109375 398.5400390625 -11.45654296875Q397.34033203125 -10.03271484375 397.34033203125 -7.34326171875V0.0H394.9013671875V-14.765625H397.34033203125V-11.87841796875Q397.94677734375 -13.447265625 399.205810546875 -14.284423828125Q400.46484375 -15.12158203125 402.19189453125 -15.12158203125Q403.08837890625 -15.12158203125 403.8662109375 -14.8974609375Q404.64404296875 -14.67333984375 405.35595703125 -14.19873046875ZM415.63916015625 -7.42236328125H414.8349609375Q412.71240234375 -7.42236328125 411.637939453125 -6.677490234375Q410.5634765625 -5.9326171875 410.5634765625 -4.4560546875Q410.5634765625 -3.12451171875 411.36767578125 -2.38623046875Q412.171875 -1.64794921875 413.595703125 -1.64794921875Q415.599609375 -1.64794921875 416.74658203125 -3.038818359375Q417.8935546875 -4.4296875 417.90673828125 -6.8818359375V-7.42236328125ZM420.345703125 -8.42431640625V0.0H417.90673828125V-2.1884765625Q417.12890625 -0.8701171875 415.948974609375 -0.243896484375Q414.76904296875 0.38232421875 413.08154296875 0.38232421875Q410.8271484375 0.38232421875 409.482421875 -0.889892578125Q408.1376953125 -2.162109375 408.1376953125 -4.2978515625Q408.1376953125 -6.76318359375 409.792236328125 -8.0419921875Q411.44677734375 -9.32080078125 414.650390625 -9.32080078125H417.90673828125V-9.703125Q417.8935546875 -11.4697265625 417.01025390625 -12.267333984375Q416.126953125 -13.06494140625 414.18896484375 -13.06494140625Q412.94970703125 -13.06494140625 411.68408203125 -12.708984375Q410.41845703125 -12.35302734375 409.21875 -11.66748046875V-14.09326171875Q410.5634765625 -14.607421875 411.796142578125 -14.864501953125Q413.02880859375 -15.12158203125 414.18896484375 -15.12158203125Q416.021484375 -15.12158203125 417.320068359375 -14.5810546875Q418.61865234375 -14.04052734375 419.4228515625 -12.95947265625Q419.923828125 -12.30029296875 420.134765625 -11.331298828125Q420.345703125 -10.3623046875 420.345703125 -8.42431640625ZM430.734375 -18.9580078125V-14.765625H436.2451171875V-12.88037109375H430.734375V-4.86474609375Q430.734375 -3.22998046875 431.35400390625 -2.583984375Q431.9736328125 -1.93798828125 433.51611328125 -1.93798828125H436.2451171875V0.0H433.27880859375Q430.5498046875 0.0 429.42919921875 -1.09423828125Q428.30859375 -2.1884765625 428.30859375 -4.86474609375V-12.88037109375H424.36669921875V-14.765625H428.30859375V-18.9580078125ZM442.27001953125 -14.765625H448.4794921875V-1.88525390625H453.29150390625V0.0H441.24169921875V-1.88525390625H446.0537109375V-12.88037109375H442.27001953125ZM446.0537109375 -20.513671875H448.4794921875V-17.44189453125H446.0537109375ZM463.271484375 -13.06494140625Q461.42578125 -13.06494140625 460.4765625 -11.6279296875Q459.52734375 -10.19091796875 459.52734375 -7.36962890625Q459.52734375 -4.5615234375 460.4765625 -3.117919921875Q461.42578125 -1.67431640625 463.271484375 -1.67431640625Q465.13037109375 -1.67431640625 466.07958984375 -3.117919921875Q467.02880859375 -4.5615234375 467.02880859375 -7.36962890625Q467.02880859375 -10.19091796875 466.07958984375 -11.6279296875Q465.13037109375 -13.06494140625 463.271484375 -13.06494140625ZM463.271484375 -15.12158203125Q466.34326171875 -15.12158203125 467.971435546875 -13.130859375Q469.599609375 -11.14013671875 469.599609375 -7.36962890625Q469.599609375 -3.5859375 467.97802734375 -1.601806640625Q466.3564453125 0.38232421875 463.271484375 0.38232421875Q460.19970703125 0.38232421875 458.578125 -1.601806640625Q456.95654296875 -3.5859375 456.95654296875 -7.36962890625Q456.95654296875 -11.14013671875 458.578125 -13.130859375Q460.19970703125 -15.12158203125 463.271484375 -15.12158203125ZM485.26171875 -9.1494140625V0.0H482.82275390625V-9.1494140625Q482.82275390625 -11.14013671875 482.1240234375 -12.076171875Q481.42529296875 -13.01220703125 479.935546875 -13.01220703125Q478.23486328125 -13.01220703125 477.318603515625 -11.805908203125Q476.40234375 -10.599609375 476.40234375 -8.34521484375V0.0H473.9765625V-14.765625H476.40234375V-12.55078125Q477.04833984375 -13.81640625 478.15576171875 -14.468994140625Q479.26318359375 -15.12158203125 480.779296875 -15.12158203125Q483.03369140625 -15.12158203125 484.147705078125 -13.638427734375Q485.26171875 -12.1552734375 485.26171875 -9.1494140625ZM517.9306640625 -20.513671875V-18.49658203125H515.17529296875Q513.8701171875 -18.49658203125 513.362548828125 -17.962646484375Q512.85498046875 -17.4287109375 512.85498046875 -16.07080078125V-14.765625H517.9306640625V-12.88037109375H512.85498046875V0.0H510.42919921875V-12.88037109375H506.4873046875V-14.765625H510.42919921875V-15.7939453125Q510.42919921875 -18.2197265625 511.543212890625 -19.36669921875Q512.6572265625 -20.513671875 515.01708984375 -20.513671875ZM528.29296875 -13.06494140625Q526.447265625 -13.06494140625 525.498046875 -11.6279296875Q524.548828125 -10.19091796875 524.548828125 -7.36962890625Q524.548828125 -4.5615234375 525.498046875 -3.117919921875Q526.447265625 -1.67431640625 528.29296875 -1.67431640625Q530.15185546875 -1.67431640625 531.10107421875 -3.117919921875Q532.05029296875 -4.5615234375 532.05029296875 -7.36962890625Q532.05029296875 -10.19091796875 531.10107421875 -11.6279296875Q530.15185546875 -13.06494140625 528.29296875 -13.06494140625ZM528.29296875 -15.12158203125Q531.36474609375 -15.12158203125 532.992919921875 -13.130859375Q534.62109375 -11.14013671875 534.62109375 -7.36962890625Q534.62109375 -3.5859375 532.99951171875 -1.601806640625Q531.3779296875 0.38232421875 528.29296875 0.38232421875Q525.22119140625 0.38232421875 523.599609375 -1.601806640625Q521.97802734375 -3.5859375 521.97802734375 -7.36962890625Q521.97802734375 -11.14013671875 523.599609375 -13.130859375Q525.22119140625 -15.12158203125 528.29296875 -15.12158203125ZM551.654296875 -11.72021484375Q550.87646484375 -12.32666015625 550.072265625 -12.603515625Q549.26806640625 -12.88037109375 548.3056640625 -12.88037109375Q546.0380859375 -12.88037109375 544.83837890625 -11.45654296875Q543.638671875 -10.03271484375 543.638671875 -7.34326171875V0.0H541.19970703125V-14.765625H543.638671875V-11.87841796875Q544.2451171875 -13.447265625 545.504150390625 -14.284423828125Q546.76318359375 -15.12158203125 548.490234375 -15.12158203125Q549.38671875 -15.12158203125 550.16455078125 -14.8974609375Q550.9423828125 -14.67333984375 551.654296875 -14.19873046875ZM578.19287109375 -7.42236328125H577.388671875Q575.26611328125 -7.42236328125 574.191650390625 -6.677490234375Q573.1171875 -5.9326171875 573.1171875 -4.4560546875Q573.1171875 -3.12451171875 573.92138671875 -2.38623046875Q574.7255859375 -1.64794921875 576.1494140625 -1.64794921875Q578.1533203125 -1.64794921875 579.30029296875 -3.038818359375Q580.447265625 -4.4296875 580.46044921875 -6.8818359375V-7.42236328125ZM582.8994140625 -8.42431640625V0.0H580.46044921875V-2.1884765625Q579.6826171875 -0.8701171875 578.502685546875 -0.243896484375Q577.32275390625 0.38232421875 575.63525390625 0.38232421875Q573.380859375 0.38232421875 572.0361328125 -0.889892578125Q570.69140625 -2.162109375 570.69140625 -4.2978515625Q570.69140625 -6.76318359375 572.345947265625 -8.0419921875Q574.00048828125 -9.32080078125 577.2041015625 -9.32080078125H580.46044921875V-9.703125Q580.447265625 -11.4697265625 579.56396484375 -12.267333984375Q578.6806640625 -13.06494140625 576.74267578125 -13.06494140625Q575.50341796875 -13.06494140625 574.23779296875 -12.708984375Q572.97216796875 -12.35302734375 571.7724609375 -11.66748046875V-14.09326171875Q573.1171875 -14.607421875 574.349853515625 -14.864501953125Q575.58251953125 -15.12158203125 576.74267578125 -15.12158203125Q578.5751953125 -15.12158203125 579.873779296875 -14.5810546875Q581.17236328125 -14.04052734375 581.9765625 -12.95947265625Q582.4775390625 -12.30029296875 582.6884765625 -11.331298828125Q582.8994140625 -10.3623046875 582.8994140625 -8.42431640625ZM596.5048828125 -7.50146484375Q596.5048828125 -10.23046875 595.614990234375 -11.647705078125Q594.72509765625 -13.06494140625 593.0244140625 -13.06494140625Q591.24462890625 -13.06494140625 590.30859375 -11.647705078125Q589.37255859375 -10.23046875 589.37255859375 -7.50146484375Q589.37255859375 -4.7724609375 590.315185546875 -3.342041015625Q591.2578125 -1.91162109375 593.05078125 -1.91162109375Q594.72509765625 -1.91162109375 595.614990234375 -3.3486328125Q596.5048828125 -4.78564453125 596.5048828125 -7.50146484375ZM598.9306640625 -0.94921875Q598.9306640625 2.373046875 597.36181640625 4.0869140625Q595.79296875 5.80078125 592.74755859375 5.80078125Q591.74560546875 5.80078125 590.6513671875 5.6162109375Q589.55712890625 5.431640625 588.462890625 5.07568359375V2.67626953125Q589.7548828125 3.28271484375 590.8095703125 3.57275390625Q591.8642578125 3.86279296875 592.74755859375 3.86279296875Q594.7119140625 3.86279296875 595.6083984375 2.794921875Q596.5048828125 1.72705078125 596.5048828125 -0.59326171875V-0.69873046875V-2.3466796875Q595.9248046875 -1.107421875 594.9228515625 -0.5009765625Q593.9208984375 0.10546875 592.48388671875 0.10546875Q589.89990234375 0.10546875 588.357421875 -1.96435546875Q586.81494140625 -4.0341796875 586.81494140625 -7.50146484375Q586.81494140625 -10.98193359375 588.357421875 -13.0517578125Q589.89990234375 -15.12158203125 592.48388671875 -15.12158203125Q593.90771484375 -15.12158203125 594.896484375 -14.5546875Q595.88525390625 -13.98779296875 596.5048828125 -12.80126953125V-14.712890625H598.9306640625ZM616.10888671875 -7.9892578125V-6.802734375H605.6015625V-6.7236328125Q605.6015625 -4.31103515625 606.860595703125 -2.99267578125Q608.11962890625 -1.67431640625 610.41357421875 -1.67431640625Q611.57373046875 -1.67431640625 612.83935546875 -2.04345703125Q614.10498046875 -2.41259765625 615.5419921875 -3.1640625V-0.75146484375Q614.15771484375 -0.1845703125 612.872314453125 0.098876953125Q611.5869140625 0.38232421875 610.38720703125 0.38232421875Q606.9462890625 0.38232421875 605.00830078125 -1.680908203125Q603.0703125 -3.744140625 603.0703125 -7.36962890625Q603.0703125 -10.90283203125 604.96875 -13.01220703125Q606.8671875 -15.12158203125 610.03125 -15.12158203125Q612.8525390625 -15.12158203125 614.480712890625 -13.2099609375Q616.10888671875 -11.29833984375 616.10888671875 -7.9892578125ZM613.68310546875 -8.701171875Q613.63037109375 -10.8369140625 612.674560546875 -11.950927734375Q611.71875 -13.06494140625 609.92578125 -13.06494140625Q608.17236328125 -13.06494140625 607.03857421875 -11.90478515625Q605.90478515625 -10.74462890625 605.69384765625 -8.68798828125ZM631.56005859375 -9.1494140625V0.0H629.12109375V-9.1494140625Q629.12109375 -11.14013671875 628.42236328125 -12.076171875Q627.7236328125 -13.01220703125 626.23388671875 -13.01220703125Q624.533203125 -13.01220703125 623.616943359375 -11.805908203125Q622.70068359375 -10.599609375 622.70068359375 -8.34521484375V0.0H620.27490234375V-14.765625H622.70068359375V-12.55078125Q623.3466796875 -13.81640625 624.4541015625 -14.468994140625Q625.5615234375 -15.12158203125 627.07763671875 -15.12158203125Q629.33203125 -15.12158203125 630.446044921875 -13.638427734375Q631.56005859375 -12.1552734375 631.56005859375 -9.1494140625ZM642.05419921875 -18.9580078125V-14.765625H647.56494140625V-12.88037109375H642.05419921875V-4.86474609375Q642.05419921875 -3.22998046875 642.673828125 -2.583984375Q643.29345703125 -1.93798828125 644.8359375 -1.93798828125H647.56494140625V0.0H644.5986328125Q641.86962890625 0.0 640.7490234375 -1.09423828125Q639.62841796875 -2.1884765625 639.62841796875 -4.86474609375V-12.88037109375H635.6865234375V-14.765625H639.62841796875V-18.9580078125ZM663.04248046875 -14.25146484375V-11.87841796875Q662.0009765625 -12.48486328125 660.9462890625 -12.7880859375Q659.8916015625 -13.09130859375 658.79736328125 -13.09130859375Q657.1494140625 -13.09130859375 656.338623046875 -12.557373046875Q655.52783203125 -12.0234375 655.52783203125 -10.92919921875Q655.52783203125 -9.9404296875 656.13427734375 -9.45263671875Q656.74072265625 -8.96484375 659.1533203125 -8.50341796875L660.12890625 -8.31884765625Q661.93505859375 -7.97607421875 662.864501953125 -6.94775390625Q663.7939453125 -5.91943359375 663.7939453125 -4.271484375Q663.7939453125 -2.0830078125 662.23828125 -0.850341796875Q660.6826171875 0.38232421875 657.9140625 0.38232421875Q656.81982421875 0.38232421875 655.6201171875 0.151611328125Q654.42041015625 -0.0791015625 653.02294921875 -0.54052734375V-3.04541015625Q654.380859375 -2.3466796875 655.6201171875 -1.997314453125Q656.859375 -1.64794921875 657.966796875 -1.64794921875Q659.5751953125 -1.64794921875 660.45849609375 -2.300537109375Q661.341796875 -2.953125 661.341796875 -4.12646484375Q661.341796875 -5.81396484375 658.11181640625 -6.4599609375L658.00634765625 -6.486328125L657.0966796875 -6.6708984375Q655.00048828125 -7.07958984375 654.0380859375 -8.048583984375Q653.07568359375 -9.017578125 653.07568359375 -10.69189453125Q653.07568359375 -12.814453125 654.5126953125 -13.968017578125Q655.94970703125 -15.12158203125 658.61279296875 -15.12158203125Q659.79931640625 -15.12158203125 660.8935546875 -14.904052734375Q661.98779296875 -14.6865234375 663.04248046875 -14.25146484375Z" fill="#48485A"/>
</svg>
